<?xml version="1.0" encoding="utf-8"?>
<!-- Generator: Adobe Illustrator 27.9.0, SVG Export Plug-In . SVG Version: 6.00 Build 0)  -->
<svg version="1.1" id="Calque_1" xmlns="http://www.w3.org/2000/svg" xmlns:xlink="http://www.w3.org/1999/xlink" x="0px" y="0px"
	 viewBox="0 0 44 59" style="enable-background:new 0 0 44 59;" xml:space="preserve">
<style type="text/css">
	.st0{fill:#FFFFFF;}
</style>
<g>
	<polygon class="st0" points="0.6,47.1 2.2,47.1 2.2,51.2 3.2,51.2 3.2,47.1 4.8,47.1 4.8,46.3 0.6,46.3 	"/>
	<path class="st0" d="M8.8,46.3l-2.2,4.9h0.9l0.5-1.1h2.4l0.5,1.1h1l-2.2-4.9H8.8z M8.4,49.4l0.9-2.1l0.9,2.1H8.4z"/>
	<path class="st0" d="M18.5,49c0.2-0.3,0.3-0.6,0.3-1c0-0.4-0.1-0.7-0.3-0.9s-0.4-0.5-0.7-0.6c-0.3-0.1-0.7-0.2-1.1-0.2h-2v4.9h0.9
		v-1.4h1.1c0.1,0,0.1,0,0.2,0l1,1.4h1l-1.1-1.6C18.1,49.5,18.3,49.3,18.5,49z M16.6,49h-1.1v-2h1.1c0.4,0,0.7,0.1,0.9,0.3
		c0.2,0.2,0.3,0.4,0.3,0.7s-0.1,0.6-0.3,0.7C17.3,48.9,17,49,16.6,49z"/>
	<path class="st0" d="M23.4,46.3l-2.2,4.9h0.9l0.5-1.1h2.4l0.5,1.1h1l-2.2-4.9H23.4z M22.9,49.4l0.9-2.1l0.9,2.1H22.9z"/>
	<polygon class="st0" points="34,50.1 32.8,46.3 31.9,46.3 30.7,50 29.4,46.3 28.5,46.3 30.1,51.2 31.1,51.2 32.3,47.6 33.5,51.2 
		34.5,51.2 36.1,46.3 35.3,46.3 	"/>
	<path class="st0" d="M41.2,46.3h-0.9l-2.2,4.9h0.9l0.5-1.1H42l0.5,1.1h1L41.2,46.3z M39.9,49.4l0.9-2.1l0.9,2.1H39.9z"/>
	<polygon class="st0" points="10.9,56.4 9.8,56.4 9.8,55.2 9.1,55.2 9.1,58 9.8,58 9.8,56.9 10.9,56.9 10.9,58 11.5,58 11.5,55.2 
		10.9,55.2 	"/>
	<path class="st0" d="M16.7,55.1c-0.4,0-0.8,0.1-1,0.4c-0.3,0.3-0.4,0.6-0.4,1c0,0.4,0.1,0.8,0.4,1c0.3,0.3,0.6,0.4,1,0.4
		s0.8-0.1,1-0.4c0.3-0.3,0.4-0.6,0.4-1c0-0.4-0.1-0.8-0.4-1C17.5,55.3,17.1,55.1,16.7,55.1z M17.3,57.2c-0.2,0.2-0.4,0.3-0.6,0.3
		s-0.4-0.1-0.6-0.3c-0.2-0.2-0.2-0.4-0.2-0.6s0.1-0.5,0.2-0.6s0.4-0.3,0.6-0.3s0.4,0.1,0.6,0.3s0.2,0.4,0.2,0.6S17.5,57,17.3,57.2z"
		/>
	<polygon class="st0" points="21.6,55.7 22.4,55.7 22.4,58 23,58 23,55.7 23.8,55.7 23.8,55.2 21.6,55.2 	"/>
	<polygon class="st0" points="28.1,56.9 29.3,56.9 29.3,56.3 28.1,56.3 28.1,55.8 29.5,55.8 29.5,55.2 27.5,55.2 27.5,58 29.5,58 
		29.5,57.4 28.1,57.4 	"/>
	<polygon class="st0" points="33.9,55.2 33.3,55.2 33.3,58 35.1,58 35.1,57.4 33.9,57.4 	"/>
	<path class="st0" d="M39.8,23.3c-0.8,0-1.6,0.1-2.5,0.2c0.3-1.8,0.3-3.6-0.1-5.3c0.7-0.1,1.4-0.1,2-0.1c1.2,0,2.4,0.1,3.6,0.3
		l-0.1-0.8C41.3,8.7,34.4,1.8,25.6,0.3C14.1-1.7,3.2,6,1.2,17.5l-0.1,0.8c1.1-0.2,2.3-0.3,3.4-0.3c0.7,0,1.5,0.1,2.2,0.2
		c-0.3,1.7-0.3,3.5-0.1,5.3c-0.8-0.1-1.6-0.2-2.5-0.2c-1,0-2.1,0.1-3.1,0.2l0.1,0.6c0.7,5,3.2,9.5,7,12.8
		c12.2,10.6,32.1,4.4,34.7-13.4C41.9,23.4,40.9,23.3,39.8,23.3z M2.6,16.9C4.3,9.3,10.2,3.3,17.8,1.7c10.7-2.3,21.2,4.5,23.5,15.2
		c-1.5-0.2-2.9-0.1-4.4,0c-0.5-1.9-1.4-3.8-2.7-5.5c-2.2,0-4.4,0.6-6.4,1.5c-1.2-2.8-3.3-5.2-6-6.8c-2.8,1.6-4.8,4.1-6.1,6.9
		c-1.9-0.9-4-1.5-6.1-1.6C8.4,13.2,7.5,15,7,17C5.6,16.8,4.1,16.8,2.6,16.9z M28.4,14.2c1.6-0.8,3.4-1.3,5.3-1.4
		c0.9,1.3,1.6,2.8,2.1,4.4c-2.3,0.4-4.6,1.2-6.6,2.4C29.2,17.7,28.9,15.9,28.4,14.2z M26.8,13.6c-2,1.1-3.7,2.7-5,4.6
		c-1.3-1.9-2.9-3.4-4.8-4.5c1-2.4,2.7-4.5,5-6.1C24.1,9.2,25.8,11.2,26.8,13.6z M14.7,19.5L14.7,19.5c-2-1.1-4.2-1.9-6.4-2.3
		c0.4-1.6,1.1-3,2.1-4.4l0,0c1.8,0.2,3.5,0.7,5.1,1.5C14.9,16,14.6,17.7,14.7,19.5z M7.7,21.1c0-0.9,0.1-1.8,0.3-2.7
		c2.9,0.5,5.8,1.7,8.2,3.5L16,20.6c-0.2-2,0-3.9,0.5-5.7c1.9,1.2,3.6,2.8,4.7,4.8l0.5,0.9l0.5-0.9c1.2-2.1,2.9-3.7,4.9-4.9
		c0.6,1.8,0.8,3.8,0.6,5.8l-0.2,1.3l1.1-0.7c2.2-1.4,4.7-2.4,7.3-2.8c0.1,0.7,0.2,1.4,0.2,2.1c0,1.1,0,2.2-0.2,3.2
		c-3.7,0.7-7.2,2.3-10,4.8c-1.1-1.5-2.5-2.7-4.1-3.7c-1.6,0.9-2.9,2.2-4.1,3.6c-2.8-2.4-6.3-4-9.9-4.7C7.8,22.8,7.7,22,7.7,21.1z
		 M35.7,25c-1.7,5.8-6.8,10.1-13.1,10.4C16.4,35.8,10.1,31.4,8.3,25c3.4,0.7,6.6,2.3,9.3,4.7l0.5,0.5c1-1.6,2.3-2.9,3.9-3.9
		c1.6,1.1,2.9,2.5,3.9,4.1l0.5-0.5C29,27.4,32.3,25.7,35.7,25z M25.6,40.6c-10.8,2-21.1-5.2-23.1-15.9l0,0c1.5-0.1,3-0.1,4.4,0.1
		c0.6,2.5,1.9,4.9,3.7,6.9h0c5.5,5.9,14.6,6.6,20.9,1.6c2.9-2.2,4.7-5.3,5.5-8.6c1.4-0.2,2.9-0.3,4.4-0.1
		C40,32.7,33.7,39.1,25.6,40.6z"/>
</g>
</svg>
