<?xml version="1.0" encoding="utf-8"?>
<!-- Generator: Adobe Illustrator 27.9.0, SVG Export Plug-In . SVG Version: 6.00 Build 0)  -->
<svg version="1.1" id="Calque_1" xmlns="http://www.w3.org/2000/svg" xmlns:xlink="http://www.w3.org/1999/xlink" x="0px" y="0px"
	 viewBox="0 0 222 222.5" style="enable-background:new 0 0 222 222.5;" xml:space="preserve">
<style type="text/css">
	.st0{fill:#3b3b3b;}
</style>
<g>
	<polygon class="st0" points="1.1,178.7 9.4,178.7 9.4,200 14.1,200 14.1,178.7 22.5,178.7 22.5,174.7 1.1,174.7 	"/>
	<path class="st0" d="M43.3,174.7L32,199.9h4.8l2.5-5.8h12.6l2.5,5.9h4.9l-11.4-25.3H43.3z M40.8,190.5l4.7-11l4.8,11H40.8z"/>
	<path class="st0" d="M89,191.7c1.8-0.7,3.1-1.7,4-3.1c0.9-1.4,1.4-3,1.4-4.9s-0.4-3.5-1.3-4.8c-0.8-1.3-2.1-2.4-3.7-3.1
		c-1.6-0.7-3.5-1.1-5.7-1.1H73.3v25.2H78v-7.3h5.7c0.5,0,0.8,0,1,0l5.1,7.4h5L89,191.7z M83.5,188.7H78v-10h5.5c2,0,3.5,0.4,4.6,1.3
		c1,0.9,1.6,2.1,1.6,3.7c0,1.6-0.5,2.8-1.6,3.7C87.1,188.3,85.5,188.7,83.5,188.7z"/>
	<path class="st0" d="M118.1,174.7l-11.3,25.2h4.8l2.5-5.8h12.6l2.5,5.8h4.9l-11.4-25.2H118.1z M115.7,190.5l4.7-11l4.8,11H115.7z"
		/>
	<polygon class="st0" points="172.8,194.1 166.4,174.8 162.1,174.8 155.6,194 149.3,174.8 144.4,174.8 152.8,200 157.8,200 
		164.1,181.4 170.3,200 175.3,200 183.7,174.8 179.2,174.8 	"/>
	<path class="st0" d="M209.8,174.7h-4.6l-11.3,25.2h4.8l2.5-5.8h12.6l2.5,5.8h4.9L209.8,174.7z M202.8,190.5l4.7-11l4.8,11H202.8z"
		/>
	<polygon class="st0" points="77.6,216.1 74.3,216.1 74.3,212.6 72.4,212.6 72.4,221 74.3,221 74.3,217.7 77.6,217.7 77.6,221 
		79.5,221 79.5,212.6 77.6,212.6 	"/>
	<path class="st0" d="M95.1,212.4c-1.2,0-2.3,0.4-3.1,1.2c-0.9,0.8-1.3,1.9-1.3,3.1s0.5,2.3,1.3,3.1s1.9,1.2,3.1,1.2
		c1.2,0,2.3-0.4,3.1-1.2c0.9-0.8,1.3-1.9,1.3-3.1c0-1.2-0.5-2.3-1.3-3.1S96.3,212.4,95.1,212.4z M96.9,218.6
		c-0.5,0.5-1.1,0.8-1.8,0.8c-0.7,0-1.3-0.3-1.8-0.8s-0.7-1.2-0.7-1.9c0-0.7,0.2-1.4,0.7-1.9s1.1-0.8,1.8-0.8c0.7,0,1.3,0.3,1.8,0.8
		s0.7,1.2,0.7,1.9C97.6,217.5,97.4,218.1,96.9,218.6z"/>
	<polygon class="st0" points="109.7,214.2 112.1,214.2 112.1,221 114,221 114,214.2 116.3,214.2 116.3,212.6 109.7,212.6 	"/>
	<polygon class="st0" points="129.2,217.6 133,217.6 133,216 129.2,216 129.2,214.3 133.4,214.3 133.4,212.6 127.3,212.6 127.3,221 
		133.5,221 133.5,219.3 129.2,219.3 	"/>
	<polygon class="st0" points="146.7,212.6 144.8,212.6 144.8,221 150.3,221 150.3,219.3 146.7,219.3 	"/>
	<path class="st0" d="M183.5,82.5c-3.5-0.5-7.1-0.8-10.7-0.8c-2.8,0-5.6,0.2-8.4,0.5c0.4-2.7,0.6-5.4,0.6-8.2c0-3.5-0.3-6.8-0.9-10
		c2.3-0.2,4.6-0.4,6.9-0.4c4.2,0,8.3,0.4,12.4,1.1l-0.5-2.9C177.8,31.5,154,7.7,123.7,2.5C84.3-4.3,46.8,22.2,40.1,61.7l-0.5,2.9
		c3.9-0.6,7.8-1,11.7-1c2.7,0,5.2,0.2,7.6,0.4c-1.2,6.1-1.3,12.2-0.3,18.2c-2.8-0.3-5.6-0.5-8.4-0.5c-3.6,0.1-7.2,0.3-10.7,0.8
		l0.3,2.1c2.5,17.1,11.1,32.7,24.1,44C105.8,165,174.4,143.6,183.5,82.5z M44.8,59.6c5.6-26.2,26.1-46.7,52.3-52.4
		c36.9-7.8,73.1,15.7,81,52.5c-5-0.5-10-0.5-15,0.1c-1.8-6.6-5-12.8-9.4-18.7c-8.1,0.3-15.5,2.2-21.9,5.2c-4-9-10.8-17.2-20.7-23.5
		c-10,6.3-16.8,14.6-20.8,23.8c-6.2-3-13.3-5-21.1-5.5c-4.4,6-7.5,12.3-9.3,18.8C55,59.2,49.9,59.1,44.8,59.6z M133.4,50.3
		c5.7-2.8,11.9-4.5,18.4-4.9c3.4,4.7,5.7,9.8,7.2,15c-8,1.4-15.8,4.2-22.9,8.2C136.3,62.4,135.4,56.2,133.4,50.3z M128,48.3
		c-7,4-12.9,9.5-17.3,16c-4.3-6.3-9.9-11.7-16.7-15.7c3.5-8.3,9.3-15.5,17.1-20.7C118.8,33,124.5,40.1,128,48.3z M86.2,68.6
		c-6.9-4-14.4-6.7-22.1-8.1c1.5-5.3,3.9-10.4,7.2-15c6.2,0.6,12.1,2.4,17.5,5.1C86.9,56.4,86,62.5,86.2,68.6z M62.3,73.9
		c0-3.1,0.3-6.2,0.8-9.2c14.4,2.6,23.7,9.3,28.2,12.2l-0.6-4.5c-0.8-6.8-0.1-13.5,1.9-19.7c6.6,4.1,12.3,9.7,16.4,16.6l1.8,3.1
		l1.8-3.1c4.2-7.1,10.1-12.9,16.9-17c2.1,6.4,2.8,13.2,2,20.1l-0.5,4.5l3.8-2.5c7.6-5,16.2-8.4,25.1-9.9c1.2,6.1,1.1,12.3,0,18.3
		c-12.7,2.3-24.7,8-34.5,16.5c-3.9-5.1-8.8-9.4-14.2-12.7c-5.4,3.2-10.1,7.4-14,12.3c-9.8-8.4-21.6-13.9-34.1-16.1
		C62.6,80,62.3,77,62.3,73.9z M158.9,87.4c-5.5,19.1-22.1,34.8-45.2,35.7c-21.5,1.7-43-13.5-49.4-35.7c11.8,2.5,22.8,8,31.9,16.3
		l1.8,1.6c3.5-5.3,8-9.9,13.3-13.5c5.4,3.8,10,8.5,13.5,14l1.8-1.7C135.7,95.6,146.9,89.9,158.9,87.4z M44.4,86.2
		c5.1-0.4,10.1-0.3,15.1,0.4c2.2,8.9,6.6,17.1,12.9,23.9c10.1,10.8,24.3,16.9,39.1,17c25.2,0,46.3-17.5,52-40.9
		c5-0.7,10-0.8,15.1-0.4c-5.1,27.9-26.9,49.7-54.8,54.8C86.7,147.8,51.2,123.3,44.4,86.2z"/>
</g>
</svg>
